<?xml version="1.0" standalone="no"?>
<!DOCTYPE svg PUBLIC "-//W3C//DTD SVG 20010904//EN"
 "http://www.w3.org/TR/2001/REC-SVG-20010904/DTD/svg10.dtd">
<svg version="1.0" xmlns="http://www.w3.org/2000/svg"
 width="1024.000000pt" height="1024.000000pt" viewBox="0 0 1024.000000 1024.000000"
 preserveAspectRatio="xMidYMid meet">

<g transform="translate(0.000000,1024.000000) scale(0.100000,-0.100000)"
fill="#000000" stroke="none">
<path d="M4833 9730 c-40 -16 -50 -50 -104 -378 -13 -79 -28 -141 -38 -153
-13 -16 -39 -23 -134 -34 -65 -8 -125 -11 -133 -8 -17 6 -107 189 -173 348
-60 144 -75 155 -171 130 -403 -103 -374 -81 -366 -269 3 -72 8 -180 12 -241
8 -141 4 -146 -139 -203 -58 -23 -111 -42 -119 -42 -12 0 -189 192 -303 328
-32 38 -74 62 -108 62 -13 0 -50 -16 -83 -37 -32 -20 -95 -58 -139 -84 -137
-81 -129 -71 -122 -153 4 -47 26 -133 67 -255 33 -102 60 -192 60 -201 0 -10
-10 -28 -23 -41 -36 -39 -215 -152 -231 -146 -8 3 -41 26 -73 50 -32 24 -116
85 -187 135 -179 127 -164 130 -340 -47 l-138 -138 7 -44 c10 -59 149 -331
200 -389 30 -35 44 -75 33 -95 -30 -54 -161 -205 -184 -211 -15 -4 -43 2 -72
14 -60 26 -339 127 -373 135 -42 11 -67 -17 -178 -202 -102 -167 -103 -171
-90 -202 13 -32 122 -160 267 -312 86 -92 86 -80 10 -234 -69 -141 -64 -137
-190 -124 -57 6 -164 15 -238 20 -159 12 -171 8 -200 -74 -128 -350 -129 -357
-78 -400 40 -33 255 -159 323 -190 73 -33 100 -66 100 -123 0 -77 -14 -201
-24 -221 -10 -18 -96 -45 -342 -107 -131 -33 -155 -45 -168 -86 -16 -52 -15
-419 1 -441 10 -13 76 -35 223 -72 114 -30 221 -59 236 -65 35 -15 46 -45 59
-155 18 -163 28 -144 -113 -215 -67 -34 -166 -87 -219 -117 -126 -71 -125 -66
-59 -286 57 -188 74 -226 99 -228 9 -1 125 -1 257 1 l240 2 22 -24 c20 -21
123 -222 123 -240 0 -5 -61 -70 -136 -145 -181 -183 -208 -217 -207 -256 0
-32 155 -319 196 -365 38 -41 100 -28 342 71 61 24 122 50 137 57 14 7 38 10
51 6 27 -6 187 -186 187 -209 0 -8 -8 -25 -18 -38 -10 -13 -60 -94 -110 -180
-156 -266 -156 -258 -30 -383 182 -179 195 -189 238 -183 21 3 64 22 96 45 33
22 123 81 202 132 l142 93 43 -23 c23 -12 74 -43 112 -69 54 -36 71 -52 73
-73 2 -15 -17 -91 -43 -168 -52 -159 -87 -300 -87 -348 0 -44 19 -63 115 -112
45 -23 113 -61 150 -83 104 -61 109 -60 230 69 57 60 136 145 176 189 40 44
81 84 91 89 22 10 202 -56 231 -85 18 -18 19 -38 19 -273 0 -159 4 -265 11
-285 14 -38 34 -50 108 -61 31 -5 106 -20 166 -34 61 -14 122 -26 136 -26 33
0 70 37 88 86 35 100 162 366 189 397 17 19 91 22 191 8 66 -9 86 -30 100
-104 5 -29 22 -115 36 -192 15 -77 34 -168 42 -203 22 -90 28 -92 262 -92 241
0 231 -6 265 165 45 222 88 378 111 401 23 23 117 44 198 44 59 0 59 0 172
-265 47 -111 92 -211 101 -223 26 -37 98 -28 389 49 51 14 73 34 79 73 3 17 7
141 9 275 l4 244 30 27 c33 29 185 85 207 77 8 -3 74 -74 148 -159 168 -191
219 -238 255 -238 16 0 55 16 88 35 33 19 96 53 139 77 100 54 156 105 156
143 0 42 -24 126 -85 295 -84 231 -80 208 -39 247 41 38 181 123 205 123 9 0
55 -29 102 -65 107 -81 237 -166 300 -196 47 -23 48 -23 82 -5 49 27 272 257
281 290 9 36 -64 184 -176 354 -44 68 -80 131 -80 140 0 26 24 58 104 139 39
40 78 73 88 73 9 0 57 -17 105 -39 48 -21 151 -60 229 -87 170 -59 174 -58
230 43 21 37 62 106 92 153 68 106 85 145 77 179 -4 15 -80 100 -181 202 -96
97 -174 182 -174 191 0 24 85 190 115 227 27 31 32 33 74 27 25 -3 138 -8 251
-12 198 -6 206 -6 223 14 24 26 117 343 117 397 0 53 -18 70 -130 119 -114 51
-297 162 -316 192 -9 13 -13 31 -10 40 3 8 8 45 11 82 7 84 21 137 41 157 16
16 20 17 119 36 197 38 351 80 368 100 14 18 17 44 18 168 1 251 0 274 -20
301 -20 27 -63 43 -186 66 -97 19 -250 61 -287 80 -31 16 -34 25 -48 149 -14
130 -13 143 14 168 14 13 111 70 217 127 155 85 194 111 206 136 14 29 12 41
-42 230 -41 143 -63 204 -78 218 -19 16 -33 18 -112 12 -49 -3 -99 -8 -110
-10 -31 -6 -205 -20 -255 -21 l-45 0 -47 78 c-56 94 -83 168 -73 205 3 14 48
69 98 122 50 52 117 122 149 155 31 33 64 76 72 96 15 36 15 38 -25 113 -22
41 -61 111 -87 155 -26 43 -55 93 -64 110 -9 17 -29 36 -44 41 -29 11 -92 -8
-348 -108 l-129 -51 -59 57 c-71 68 -148 167 -148 191 0 10 19 44 42 77 113
161 218 348 218 390 0 13 -52 74 -144 168 -130 133 -147 148 -171 142 -34 -9
-101 -50 -263 -163 -73 -51 -142 -98 -153 -103 -16 -9 -33 -3 -97 39 -131 85
-159 109 -166 136 -5 19 8 61 49 158 57 134 105 281 105 322 0 36 -35 70 -107
108 -38 19 -111 59 -163 91 -100 59 -122 65 -157 41 -24 -17 -245 -261 -283
-313 -47 -64 -58 -66 -159 -27 -116 44 -147 60 -156 82 -4 10 -6 129 -5 264 1
225 -1 248 -18 268 -14 19 -52 31 -182 62 -223 53 -235 55 -264 36 -14 -10
-37 -47 -56 -94 -18 -43 -57 -129 -86 -191 -30 -62 -54 -117 -54 -121 0 -5
-10 -21 -21 -36 -21 -26 -24 -27 -98 -20 -182 15 -196 19 -211 72 -14 52 -80
359 -80 375 0 30 -23 91 -41 109 -18 18 -34 19 -216 18 -109 0 -208 -4 -220
-9z m772 -799 c169 -27 392 -77 480 -106 39 -13 104 -34 145 -46 270 -77 699
-308 1009 -543 302 -227 504 -433 745 -758 195 -264 369 -587 506 -942 115
-299 165 -505 205 -851 24 -208 27 -512 7 -689 -53 -480 -155 -832 -358 -1237
-172 -344 -292 -522 -579 -853 -232 -270 -611 -572 -938 -750 -188 -102 -430
-208 -641 -280 -306 -106 -679 -164 -1111 -173 -336 -7 -555 13 -855 78 -314
69 -716 230 -1017 409 -246 145 -586 411 -788 614 -151 153 -390 442 -481 583
-291 449 -483 942 -545 1396 -44 321 -35 819 21 1112 68 360 100 465 233 776
243 564 539 980 997 1397 436 396 1016 688 1630 821 294 63 377 70 835 66 321
-2 387 -5 500 -24z"/>
<path d="M4715 8808 c-49 -4 -97 -9 -105 -9 -112 -6 -473 -87 -666 -150 -329
-107 -529 -200 -812 -378 -395 -249 -856 -729 -1109 -1156 -115 -193 -119
-202 -284 -581 -101 -231 -187 -580 -217 -874 -10 -104 -9 -677 2 -775 5 -44
10 -96 12 -115 9 -94 71 -335 129 -502 131 -377 327 -743 538 -1008 302 -378
507 -569 893 -835 240 -165 548 -320 815 -409 178 -59 494 -134 614 -146 61
-5 160 -15 220 -22 223 -22 636 -1 970 51 366 57 835 241 1201 471 400 252
721 565 1028 1004 295 421 510 936 576 1378 11 73 22 144 25 158 3 14 10 126
16 250 10 223 1 494 -21 624 -27 158 -42 226 -75 352 -82 309 -178 552 -336
849 -98 184 -170 295 -288 448 -42 54 -94 122 -116 151 -117 155 -342 372
-541 521 -453 339 -876 537 -1362 636 -307 62 -383 70 -712 73 -168 2 -345 -1
-395 -6z m-9 -134 c5 -20 -22 -53 -192 -231 -314 -327 -486 -502 -526 -534
-42 -34 -90 -43 -96 -18 -2 10 106 125 290 310 161 162 337 342 391 401 101
109 121 120 133 72z m245 12 c15 -32 1 -51 -143 -193 -105 -104 -370 -378
-467 -485 -44 -49 -63 -52 -82 -16 -9 18 9 40 153 186 217 222 424 437 471
490 44 49 53 51 68 18z m244 -6 c3 -11 2 -27 -3 -35 -4 -9 -96 -107 -203 -218
-191 -197 -299 -311 -372 -392 -30 -34 -39 -38 -54 -29 -41 25 -27 45 183 264
113 118 252 263 307 323 101 107 130 125 142 87z m215 -11 c6 -11 10 -26 8
-34 -6 -27 -581 -620 -601 -620 -11 0 -25 8 -30 17 -9 14 29 58 234 270 134
139 271 283 303 321 32 37 62 67 67 67 5 0 13 -9 19 -21z m-992 -34 c2 -15
-60 -83 -225 -250 -126 -126 -287 -293 -358 -370 -71 -77 -155 -165 -185 -196
-60 -60 -143 -114 -160 -104 -24 15 -6 47 60 107 39 34 119 114 177 178 59 63
227 238 374 388 218 222 272 273 291 270 14 -2 24 -11 26 -23z m1208 0 c10
-39 21 -26 -394 -466 -163 -173 -188 -196 -204 -186 -33 21 -19 50 75 146 108
113 423 452 462 499 32 38 52 41 61 7z m204 -35 c14 -26 13 -27 -131 -181 -64
-68 -149 -162 -190 -209 -124 -143 -251 -270 -269 -270 -10 0 -21 7 -24 16 -7
18 25 57 228 278 70 78 178 196 239 264 61 67 116 122 123 122 8 0 18 -9 24
-20z m-1745 -21 c8 -24 7 -26 -155 -194 -63 -66 -235 -246 -382 -401 -292
-306 -459 -471 -501 -493 -18 -10 -33 -11 -48 -5 -19 9 8 39 281 314 166 168
343 350 393 405 50 55 145 160 211 233 144 159 186 189 201 141z m1965 -45 c0
-15 -560 -612 -602 -642 -43 -31 -67 18 -26 54 11 10 55 58 97 105 114 129
272 301 389 422 100 105 104 108 123 91 10 -9 19 -23 19 -30z m160 -63 c0 -8
-48 -65 -108 -125 -148 -153 -435 -463 -469 -508 -31 -42 -47 -44 -51 -7 -2
20 27 60 139 190 78 90 214 239 303 330 139 144 163 164 174 151 6 -9 12 -23
12 -31z m-2495 -22 c9 -28 3 -34 -600 -651 -165 -168 -348 -358 -407 -420 -93
-101 -272 -247 -285 -234 -10 10 302 348 642 696 127 129 289 300 361 380 216
239 272 283 289 229z m2649 -15 c3 -9 6 -20 6 -25 0 -18 -605 -629 -622 -629
-26 0 -22 12 20 61 21 24 45 54 54 67 9 13 125 136 259 274 134 138 246 254
247 259 6 15 29 10 36 -7z m162 -80 c6 -23 -4 -37 -78 -112 -46 -48 -113 -118
-148 -157 -198 -215 -405 -425 -421 -425 -25 0 -31 14 -19 45 6 15 106 124
223 244 116 119 257 265 311 324 55 59 105 107 112 107 8 0 17 -12 20 -26z
m159 -74 c17 -19 15 -22 -91 -133 -60 -62 -201 -211 -314 -331 -113 -120 -217
-226 -232 -237 -31 -23 -71 -26 -66 -5 2 8 82 98 178 199 96 101 247 261 335
355 88 95 163 172 166 172 3 0 14 -9 24 -20z m-3395 -31 c0 -10 -9 -27 -19
-36 -285 -265 -516 -505 -967 -1007 -98 -109 -154 -164 -154 -149 0 50 65 152
170 268 40 44 137 150 214 235 372 409 578 605 668 634 10 3 30 23 45 44 29
41 43 45 43 11z m3538 -81 c3 -23 -17 -49 -120 -160 -68 -73 -157 -171 -197
-218 -74 -84 -178 -191 -298 -304 -53 -49 -65 -57 -78 -46 -8 7 -15 18 -15 24
0 6 78 93 173 193 94 100 246 262 337 362 91 99 172 179 180 178 8 -1 16 -14
18 -29z m152 -105 c0 -20 -35 -62 -152 -182 -84 -86 -200 -208 -257 -271 -226
-249 -278 -300 -291 -285 -7 9 -9 26 -6 40 4 14 82 105 174 202 92 97 215 228
273 292 138 151 236 244 249 236 5 -3 10 -18 10 -32z m138 -99 c2 -15 -30 -53
-118 -140 -67 -65 -150 -155 -185 -199 -34 -44 -101 -115 -149 -158 -47 -43
-100 -100 -118 -125 -40 -60 -98 -122 -115 -122 -23 0 -14 55 16 100 29 43
199 220 212 220 3 0 35 35 70 77 99 121 352 374 369 371 8 -2 16 -12 18 -24z
m132 -89 c6 -8 10 -21 8 -29 -3 -15 -148 -166 -373 -386 -76 -74 -168 -171
-205 -215 -79 -95 -78 -94 -158 -139 -70 -40 -90 -44 -99 -21 -7 21 24 55 51
55 13 0 56 38 121 106 55 58 204 209 331 335 127 126 244 247 259 269 30 43
45 49 65 25z m-2305 -130 c66 -9 156 -23 200 -31 95 -19 301 -92 400 -141 225
-114 454 -296 595 -475 43 -55 145 -236 173 -308 112 -287 138 -417 132 -665
-4 -186 -20 -252 -106 -427 -70 -146 -122 -223 -219 -329 -190 -207 -457 -355
-725 -400 -38 -7 -148 -12 -242 -11 l-173 0 0 -26 c0 -50 47 -109 174 -216
246 -210 511 -291 976 -301 226 -5 276 0 460 46 165 41 222 65 344 146 108 71
291 246 380 361 89 117 236 381 281 505 17 47 59 107 75 107 16 0 40 -81 40
-134 0 -46 -9 -70 -59 -167 -119 -231 -155 -287 -283 -447 -85 -107 -98 -134
-89 -192 17 -111 -24 -172 -228 -335 -287 -231 -563 -369 -861 -432 -124 -26
-152 -28 -345 -28 -241 0 -297 9 -515 82 -298 100 -588 289 -835 544 -272 281
-454 593 -540 926 -36 137 -49 343 -31 482 36 267 184 542 379 701 76 63 199
124 290 145 154 36 354 13 496 -57 95 -46 215 -165 268 -265 51 -95 65 -152
64 -262 -2 -151 -45 -264 -138 -357 -185 -186 -475 -154 -584 65 -66 132 -7
291 108 291 37 0 77 -42 68 -71 -4 -10 -7 -37 -7 -59 -1 -60 31 -90 93 -90 40
0 55 6 84 31 50 44 65 78 65 147 0 46 -7 73 -31 120 -52 105 -145 161 -265
162 -62 0 -81 -5 -141 -35 -94 -47 -165 -118 -193 -192 -27 -72 -37 -198 -20
-276 29 -139 146 -305 257 -364 105 -57 252 -82 367 -63 174 28 288 90 431
234 81 81 108 116 138 178 59 122 72 183 70 333 -2 200 -41 322 -145 461 -98
131 -231 235 -394 310 -195 91 -463 109 -694 49 -77 -20 -238 -96 -330 -155
-224 -146 -450 -411 -594 -698 -69 -138 -132 -295 -151 -376 -43 -185 -58
-525 -31 -701 22 -142 75 -359 117 -483 107 -308 322 -633 557 -838 350 -306
710 -476 1143 -539 220 -32 537 -16 814 41 363 75 640 200 917 417 173 134
418 381 545 548 172 226 382 734 418 1009 6 47 42 121 62 127 25 9 48 -59 47
-142 -1 -103 -61 -318 -156 -560 -44 -111 -170 -360 -220 -433 -205 -301 -500
-597 -798 -797 -275 -186 -632 -318 -985 -364 -294 -38 -532 -34 -790 14 -515
97 -1014 403 -1346 825 -105 134 -139 183 -192 280 -47 88 -162 347 -191 434
-19 56 -70 295 -86 406 -7 41 -18 97 -26 124 -8 27 -14 62 -14 78 0 21 -5 28
-20 28 -22 0 -36 -22 -63 -100 -17 -48 -19 -72 -13 -190 4 -74 11 -155 17
-180 5 -25 12 -62 15 -83 18 -133 113 -395 215 -600 104 -207 306 -465 516
-657 167 -154 479 -341 724 -436 139 -54 363 -113 514 -136 161 -25 479 -29
645 -9 52 7 118 14 145 17 226 22 574 129 819 253 338 171 655 433 895 741
176 226 230 313 308 495 56 130 181 459 208 549 31 98 58 137 117 167 22 11
69 47 104 80 68 64 97 72 102 29 3 -34 -17 -55 -135 -144 -100 -75 -103 -78
-103 -116 0 -22 -14 -74 -30 -116 -17 -42 -35 -99 -41 -128 -12 -55 -55 -205
-96 -326 -68 -206 -235 -465 -477 -738 -285 -323 -759 -639 -1181 -785 -258
-90 -316 -103 -617 -137 -557 -64 -1133 51 -1586 316 -352 206 -633 462 -847
770 -149 215 -234 400 -333 721 -23 72 -46 160 -52 194 -7 35 -18 76 -26 91
-13 25 -12 32 6 69 29 56 22 69 -38 69 l-49 0 -11 43 c-6 23 -14 62 -17 86 -7
56 -21 81 -45 81 -15 0 -20 -10 -25 -66 -4 -36 -4 -88 0 -117 3 -29 9 -74 11
-102 9 -94 35 -228 75 -377 116 -437 312 -795 622 -1137 377 -416 933 -716
1502 -810 232 -38 305 -43 561 -38 253 5 270 7 584 67 144 27 310 81 506 165
142 61 249 119 414 225 74 48 176 111 225 141 50 29 106 65 125 80 19 16 47
33 63 38 23 9 27 8 27 -7 0 -30 -27 -58 -126 -133 -53 -39 -133 -104 -178
-144 -139 -120 -483 -314 -721 -405 -152 -58 -285 -96 -455 -130 -226 -44
-310 -52 -595 -51 -587 0 -1109 167 -1615 514 -175 120 -427 355 -570 532 -89
109 -256 361 -312 470 -98 191 -205 499 -242 695 -8 41 -24 158 -37 260 -18
152 -20 214 -15 347 11 281 47 493 122 724 99 303 191 498 339 714 45 66 90
135 99 153 l17 33 -34 14 c-19 8 -97 25 -173 39 -224 41 -355 72 -372 89 -15
15 -14 19 9 43 34 37 146 111 274 181 61 33 169 93 240 134 391 219 870 391
1249 449 155 23 418 26 581 5z m2433 -14 c6 -39 -730 -770 -826 -820 -18 -10
-27 -10 -38 0 -25 21 -15 37 59 93 39 29 230 212 422 405 200 201 356 350 365
349 8 -2 17 -14 18 -27z m122 -101 c10 -18 6 -26 -23 -55 -19 -19 -40 -35 -46
-35 -19 0 -12 56 10 84 25 31 44 33 59 6z m-92 -102 c4 -23 -41 -68 -68 -68
-29 0 -26 35 5 66 28 28 58 29 63 2z m210 -23 c2 -15 -59 -84 -220 -250 -490
-506 -685 -687 -756 -701 -50 -10 -43 26 11 60 23 15 240 228 483 473 445 450
474 475 482 418z m-361 -144 c-47 -70 -137 -120 -137 -76 0 20 92 112 122 124
38 14 43 -5 15 -48z m451 8 c2 -21 -43 -73 -266 -305 -308 -319 -588 -598
-647 -644 -22 -17 -54 -47 -71 -67 -33 -39 -64 -41 -64 -3 0 21 1016 1047
1035 1045 6 -1 11 -13 13 -26z m120 -140 c12 -19 8 -27 -49 -87 -103 -109
-545 -556 -695 -703 -76 -75 -198 -198 -271 -274 -75 -78 -137 -135 -145 -133
-7 3 -14 18 -16 35 -4 42 37 89 352 393 250 241 702 697 760 767 29 34 44 35
64 2z m-744 -8 c13 -20 -15 -62 -65 -98 -62 -46 -314 -295 -348 -345 -14 -20
-33 -41 -43 -47 -22 -14 -54 -7 -62 14 -7 19 38 71 78 92 34 18 97 76 285 265
121 122 143 139 155 119z m852 -146 c8 -33 -45 -89 -831 -887 -126 -128 -246
-258 -266 -288 -107 -166 -142 -212 -222 -294 -48 -49 -90 -86 -94 -82 -9 9
34 93 82 161 19 28 68 100 109 160 96 144 247 308 716 780 214 215 405 409
425 433 43 48 72 54 81 17z m-5666 -91 c0 -3 -9 -19 -21 -35 -15 -21 -29 -29
-51 -29 -39 0 -33 19 18 47 40 23 54 28 54 17z m-146 -29 c9 -24 -11 -63 -72
-140 -31 -39 -72 -93 -90 -119 -28 -41 -35 -45 -52 -36 -11 6 -20 14 -20 19 0
5 31 51 68 103 38 51 75 105 82 118 12 24 58 69 71 70 4 0 9 -7 13 -15z m5894
-27 c28 -28 9 -55 -160 -226 -223 -224 -258 -254 -313 -262 l-44 -7 239 244
c132 135 240 249 240 254 0 13 24 11 38 -3z m-5770 -140 c7 -7 12 -18 12 -26
0 -15 -204 -235 -374 -403 -92 -91 -112 -107 -127 -98 -38 20 -21 50 99 168
64 65 169 174 232 244 63 70 122 127 131 127 8 0 20 -5 27 -12z m5862 -68 c0
-9 -63 -78 -140 -154 -108 -105 -146 -137 -163 -134 -36 5 -31 34 12 75 21 21
90 89 153 151 101 101 114 111 125 95 7 -9 13 -24 13 -33z m-5687 -52 c9 -14
-38 -66 -294 -325 -168 -169 -337 -341 -376 -382 -50 -53 -75 -72 -87 -68 -50
19 -7 75 302 392 382 391 398 407 423 403 12 -2 27 -11 32 -20z m195 -30 c7
-7 12 -19 12 -27 0 -8 -71 -87 -158 -175 -214 -218 -617 -644 -725 -766 -49
-55 -94 -100 -102 -100 -7 0 -18 7 -25 15 -20 24 30 96 149 214 191 191 660
691 749 799 44 53 75 65 100 40z m5582 -69 c10 -18 0 -32 -98 -131 -87 -86
-115 -109 -134 -106 -51 7 -33 40 81 151 60 59 117 107 125 107 8 0 20 -9 26
-21z m-5424 -14 c12 -29 -149 -237 -326 -420 -163 -170 -472 -501 -555 -594
-33 -38 -102 -116 -154 -175 -51 -58 -97 -106 -100 -106 -4 0 -16 6 -26 14
-19 13 -18 15 7 53 43 65 296 345 611 677 115 121 236 253 270 295 208 257
256 301 273 256z m5478 -164 c10 -11 16 -24 15 -29 -2 -4 -50 -52 -106 -106
-102 -98 -133 -114 -141 -72 -3 13 28 51 99 122 57 57 106 104 110 104 3 0 14
-9 23 -19z m-469 -181 c74 -72 83 -164 20 -218 -81 -72 -226 -58 -299 28 -54
65 -24 163 64 208 37 19 57 23 112 20 61 -3 71 -7 103 -38z m517 3 c10 -9 18
-21 18 -27 0 -18 -166 -173 -303 -283 -43 -35 -67 -42 -67 -19 0 12 317 344
329 346 3 0 13 -7 23 -17z m-1054 -149 c12 -4 22 -11 22 -17 0 -6 -48 -58
-107 -116 -60 -58 -155 -166 -213 -239 -58 -74 -141 -178 -185 -232 -44 -54
-125 -153 -181 -221 -164 -201 -350 -389 -386 -389 -17 0 -7 38 20 76 16 21
54 65 85 97 31 31 82 90 113 130 32 39 88 104 124 143 37 39 102 117 145 175
43 57 117 151 165 209 47 58 124 154 170 214 124 159 162 187 228 170z m1122
-34 c15 -29 5 -44 -110 -150 -56 -52 -120 -118 -142 -147 -22 -29 -44 -53 -49
-53 -5 0 -16 11 -24 24 -15 22 -15 28 -2 53 14 26 294 291 309 292 4 1 12 -8
18 -19z m-5834 -5 c17 -44 -74 -179 -223 -330 -65 -66 -181 -190 -258 -275
-77 -85 -189 -206 -250 -269 -60 -63 -120 -125 -133 -139 -22 -23 -24 -23 -43
-6 -10 9 -19 22 -19 27 0 21 175 210 620 671 80 83 161 176 180 206 73 119
112 153 126 115z m1146 -175 c-1 -19 -5 -75 -8 -125 -6 -84 -9 -93 -43 -137
-39 -51 -71 -63 -71 -27 0 12 11 52 24 89 14 37 32 103 41 145 19 91 21 97 43
93 13 -3 16 -12 14 -38z m4720 -26 c11 -25 9 -29 -33 -68 -26 -22 -97 -87
-159 -144 -77 -71 -116 -100 -123 -93 -17 17 11 57 95 133 42 38 101 98 129
134 29 35 59 64 66 64 7 0 19 -12 25 -26z m-1114 -24 c17 -27 -5 -77 -58 -139
-123 -141 -305 -335 -456 -486 -172 -172 -251 -232 -275 -208 -8 8 15 37 91
115 56 56 157 166 223 243 67 77 171 194 233 260 69 76 116 135 123 158 22 66
92 100 119 57z m352 -60 c11 -11 20 -26 20 -33 0 -7 -31 -40 -68 -74 -54 -48
-89 -94 -167 -218 -107 -172 -159 -240 -274 -358 -128 -133 -294 -258 -438
-331 -64 -32 -235 -97 -333 -126 -97 -29 -251 -38 -270 -16 -10 13 -10 16 1
19 78 20 438 165 519 208 275 149 515 381 726 706 97 149 155 220 189 233 35
15 74 11 95 -10z m792 -104 c10 -23 2 -34 -118 -160 -71 -75 -135 -136 -141
-136 -21 0 -15 32 15 82 34 59 198 238 218 238 8 0 19 -11 26 -24z m-6019 -67
c5 -9 7 -27 4 -40 -3 -13 -84 -103 -178 -199 -145 -147 -415 -442 -522 -570
-23 -27 -32 -32 -45 -23 -10 5 -18 21 -20 35 -3 25 53 90 427 491 91 98 195
212 230 253 64 74 84 84 104 53z m5571 -60 c33 -15 38 -32 23 -77 -10 -30 -17
-37 -37 -37 -23 0 -25 4 -28 49 -3 46 2 76 12 76 3 0 16 -5 30 -11z m-4266
-31 c23 -23 12 -43 -64 -115 -61 -58 -80 -71 -90 -62 -27 23 -14 54 52 122 68
69 81 76 102 55z m4732 -39 c17 -31 5 -61 -37 -89 -20 -14 -74 -63 -119 -108
-46 -46 -88 -81 -93 -77 -6 3 -11 22 -11 42 0 32 11 46 112 144 62 60 118 109
125 109 7 0 17 -9 23 -21z m-2070 -152 c0 -21 -36 -54 -47 -44 -9 10 28 66 45
67 1 0 2 -10 2 -23z m-2614 -22 c5 -22 -4 -35 -63 -93 -38 -37 -76 -78 -85
-92 -13 -21 -17 -23 -32 -11 -33 28 -19 60 61 142 81 83 108 96 119 54z
m-1391 -25 c13 -14 16 -25 9 -39 -5 -11 -80 -88 -167 -171 -106 -102 -162
-150 -172 -146 -39 14 -26 38 81 149 60 62 131 138 158 170 28 31 55 57 61 57
7 0 20 -9 30 -20z m3855 -156 c-8 -14 -27 -35 -43 -46 -16 -11 -53 -54 -83
-94 -30 -40 -69 -85 -88 -99 -19 -14 -46 -51 -61 -81 -36 -74 -67 -87 -67 -29
0 17 13 40 35 63 19 20 44 55 56 77 30 59 238 262 253 247 9 -9 8 -18 -2 -38z
m-2386 -7 c9 -16 -3 -32 -94 -117 -58 -55 -111 -99 -118 -100 -7 0 -18 12 -24
26 -11 24 -7 30 88 119 101 96 126 108 148 72z m4582 -52 c3 -14 1 -31 -5 -39
-14 -17 -81 -50 -87 -43 -3 3 2 22 11 43 26 64 69 85 81 39z m-6035 -89 c14
-30 11 -36 -85 -137 -43 -46 -99 -111 -123 -144 -58 -78 -102 -124 -257 -274
l-129 -125 -18 23 c-14 17 -16 28 -9 41 5 9 79 84 164 166 87 85 173 177 197
214 64 97 209 260 231 260 10 0 23 -11 29 -24z m1516 -69 c-17 -26 -191 -189
-208 -195 -14 -6 -39 18 -39 37 0 9 50 63 112 119 111 102 112 102 132 83 18
-18 18 -21 3 -44z m1883 -37 c0 -46 -63 -100 -115 -100 -41 0 -23 55 31 91 31
20 84 26 84 9z m2605 -60 c6 -34 2 -49 -25 -96 -29 -53 -31 -60 -21 -100 13
-49 7 -68 -47 -151 -23 -34 -36 -69 -39 -100 -4 -31 -15 -60 -32 -83 -26 -33
-107 -193 -147 -290 -11 -25 -28 -54 -40 -65 -11 -11 -28 -41 -38 -67 -17 -48
-74 -108 -101 -108 -8 0 -15 2 -15 5 0 12 34 71 72 128 21 31 45 75 53 96 7
22 26 57 40 80 25 37 59 119 115 281 13 36 43 110 68 164 36 80 45 111 46 160
1 54 6 68 44 124 23 34 47 62 51 62 5 0 12 -18 16 -40z m-2877 -2 c-4 -29 -38
-38 -38 -10 0 19 11 29 33 31 5 1 7 -9 5 -21z m-3535 -3 c29 -21 17 -46 -39
-79 -28 -17 -68 -51 -89 -76 -22 -25 -57 -64 -79 -87 -37 -40 -41 -42 -58 -26
-10 9 -18 21 -18 28 0 21 69 93 120 124 28 17 50 35 50 39 0 5 14 28 30 50 32
44 53 51 83 27z m2011 -19 c9 -14 13 -32 10 -40 -3 -8 -49 -51 -103 -94 -53
-44 -103 -87 -110 -96 -17 -20 -45 -21 -61 -1 -11 13 -1 26 61 82 41 37 97 91
124 120 28 28 53 52 56 52 4 1 14 -10 23 -23z m3596 -35 c-10 -20 -30 -29 -30
-14 0 10 33 44 37 39 3 -2 0 -14 -7 -25z m-5158 -38 c10 -9 18 -23 17 -32 0
-9 -125 -144 -278 -300 -258 -263 -279 -283 -299 -272 -12 6 -22 18 -22 27 0
12 546 591 559 593 3 1 13 -6 23 -16z m1641 -90 c11 -25 9 -28 -43 -72 -30
-25 -81 -72 -114 -104 -53 -53 -61 -58 -82 -48 -13 6 -24 18 -24 27 0 16 175
189 214 211 30 17 35 16 49 -14z m38 -192 c-37 -57 -127 -145 -160 -156 -15
-4 -28 -2 -36 6 -11 12 6 32 103 121 122 111 151 121 93 29z m-1637 30 c12
-13 15 -25 9 -35 -5 -9 -96 -107 -203 -219 -107 -111 -216 -226 -241 -256 -38
-43 -51 -52 -68 -46 -46 14 -26 49 126 212 194 208 345 363 353 363 4 0 15 -9
24 -19z m4920 -87 c-10 -20 -48 -66 -86 -103 -37 -36 -109 -107 -159 -158 -50
-51 -112 -104 -137 -119 -26 -15 -80 -57 -120 -92 -44 -38 -105 -78 -150 -99
-42 -20 -94 -49 -116 -65 -21 -15 -56 -33 -77 -38 -21 -6 -57 -26 -80 -46 -57
-47 -77 -57 -105 -50 -66 17 5 115 99 136 29 7 73 24 98 40 26 15 62 33 82 39
49 16 294 181 373 250 23 20 76 63 118 96 42 33 120 107 173 164 96 103 120
116 87 45z m-3134 18 c17 -14 21 -23 14 -35 -17 -30 -227 -237 -240 -237 -18
0 -37 37 -27 53 4 6 28 31 53 54 25 22 72 73 105 112 32 39 62 71 66 71 4 0
17 -8 29 -18z m126 -168 c8 -30 -2 -42 -118 -153 -79 -75 -101 -91 -118 -86
-36 12 -19 41 94 159 110 115 130 127 142 80z m-1852 4 c8 -12 12 -27 8 -34
-4 -7 -81 -92 -172 -189 -91 -97 -193 -206 -227 -243 l-62 -67 -22 22 c-28 28
-28 28 132 203 235 256 304 328 316 329 6 1 19 -9 27 -21z m1992 -102 c8 -32
5 -36 -104 -160 -91 -103 -115 -119 -140 -94 -22 22 -12 43 44 98 30 30 78 83
106 118 54 67 83 79 94 38z m-1908 -108 c7 -7 12 -20 12 -30 0 -22 -141 -179
-309 -344 -121 -119 -125 -122 -148 -107 -12 8 -23 20 -23 25 0 6 57 70 128
142 70 72 168 175 218 229 50 53 95 97 100 97 6 0 15 -5 22 -12z m2050 -24 c3
-27 -9 -45 -83 -127 -98 -111 -116 -124 -139 -101 -24 23 -21 30 37 92 29 31
75 83 102 115 53 64 78 70 83 21z m159 -100 c3 -8 2 -24 -3 -34 -14 -30 -196
-211 -208 -207 -6 2 -12 15 -14 29 -2 19 16 46 78 116 99 113 132 134 147 96z
m163 -69 c9 -10 10 -22 4 -35 -14 -30 -186 -220 -199 -220 -7 0 -18 7 -26 16
-10 13 -10 20 2 39 19 32 189 215 199 215 4 0 13 -7 20 -15z m-2280 -30 c6 -8
10 -21 8 -29 -3 -17 -387 -406 -399 -406 -4 0 -15 7 -23 16 -13 12 -14 20 -4
37 19 37 372 396 389 396 9 1 22 -6 29 -14z m2432 -50 c15 -33 5 -50 -92 -155
-67 -72 -82 -83 -96 -74 -31 19 -26 31 36 100 34 37 75 87 92 111 17 23 35 43
40 43 5 0 14 -11 20 -25z m197 -49 c14 -17 -22 -66 -117 -159 -66 -66 -99 -81
-109 -50 -6 16 178 223 198 223 9 0 22 -6 28 -14z m2529 -58 c3 -33 -2 -40
-63 -94 -43 -38 -77 -79 -95 -115 -44 -87 -120 -138 -137 -93 -9 24 16 61 88
133 36 36 76 82 89 101 33 50 93 111 105 107 5 -2 11 -20 13 -39z m-1627 12
c21 -17 22 -19 6 -20 -10 0 -48 -29 -83 -65 -36 -36 -69 -63 -75 -60 -15 10
-10 68 10 105 31 59 97 78 142 40z m-688 -10 c4 -14 -7 -36 -32 -68 -57 -71
-126 -142 -138 -142 -6 0 -21 8 -34 19 l-23 19 88 96 c92 99 128 119 139 76z
m197 -30 c0 -27 -65 -126 -96 -147 -28 -18 -56 -9 -62 19 -4 19 103 145 126
151 24 5 32 -1 32 -23z m224 12 c15 -18 15 -21 -10 -58 -31 -48 -83 -93 -106
-94 -46 0 -14 100 48 149 33 26 46 26 68 3z m-3160 -18 c9 -23 -6 -44 -76
-104 -34 -30 -112 -105 -173 -168 -84 -87 -114 -112 -127 -107 -41 16 -17 49
154 222 171 172 207 197 222 157z m92 -169 c13 -19 2 -32 -160 -188 -112 -107
-182 -167 -195 -167 -12 0 -21 2 -21 4 0 2 -3 12 -6 21 -9 22 322 355 350 352
10 -1 25 -11 32 -22z m103 -146 c-32 -62 -262 -286 -319 -313 -23 -11 -54 10
-42 28 4 7 83 86 175 176 151 146 170 161 184 148 12 -13 13 -20 2 -39z m104
-91 c20 -31 -16 -79 -155 -211 -138 -131 -178 -155 -186 -115 -4 19 306 349
322 344 5 -1 14 -9 19 -18z m138 -154 c12 -15 5 -24 -56 -77 -88 -76 -182
-173 -203 -210 -21 -35 -65 -35 -70 0 -4 27 81 134 186 236 74 71 114 85 143
51z m4036 -168 c-9 -13 -35 -39 -57 -58 -23 -18 -80 -66 -128 -106 -78 -66
-153 -104 -169 -88 -11 11 52 90 92 115 22 14 65 45 95 68 60 45 170 106 178
99 2 -3 -3 -16 -11 -30z m-3863 5 c24 -27 13 -45 -74 -117 -39 -32 -90 -83
-112 -112 -60 -77 -93 -88 -119 -40 -9 17 -5 26 23 55 58 62 247 233 256 233
5 0 17 -9 26 -19z m156 -131 c0 -23 -243 -258 -276 -266 -14 -4 -30 -2 -36 4
-8 8 19 44 98 128 127 136 180 180 200 163 8 -6 14 -19 14 -29z m110 -90 c16
-29 4 -45 -122 -163 -93 -88 -115 -104 -130 -96 -10 5 -18 16 -18 23 0 15 234
256 249 256 6 0 15 -9 21 -20z m148 -106 c3 -28 -7 -41 -98 -125 -120 -111
-122 -112 -146 -95 -17 13 -10 22 96 135 63 66 122 119 130 118 9 -1 16 -15
18 -33z m2966 0 c12 -31 6 -53 -21 -74 -36 -28 -67 -23 -71 13 -5 41 22 77 57
77 17 0 31 -6 35 -16z m-2802 -77 c-9 -36 -203 -228 -227 -225 -41 6 -23 37
90 152 92 93 119 115 129 107 8 -7 12 -21 8 -34z m2618 -32 c0 -31 -69 -105
-98 -105 -37 0 -29 55 12 96 42 42 86 47 86 9z m-2462 -17 c7 -7 12 -17 12
-24 0 -37 -201 -234 -239 -234 -46 0 -28 33 82 150 61 66 117 120 122 120 6 0
16 -5 23 -12z m196 -70 c17 -27 -11 -65 -108 -147 -107 -92 -132 -107 -152
-90 -21 17 -18 24 32 71 26 24 79 76 119 117 73 73 89 80 109 49z m1996 -22
c0 -30 -57 -104 -81 -106 -28 -1 -5 92 28 118 28 20 53 15 53 -12z m-1790 -60
c0 -23 -71 -96 -168 -175 -51 -42 -53 -43 -77 -27 -14 9 -22 22 -19 30 7 19
195 187 219 196 28 10 45 2 45 -24z m1590 -2 c0 -9 -14 -41 -31 -70 -24 -42
-36 -54 -55 -54 -53 0 -42 67 18 110 46 34 68 38 68 14z m-1386 -30 c3 -9 6
-22 6 -29 0 -17 -188 -205 -205 -205 -20 0 -37 27 -31 48 9 26 190 202 209
202 8 0 18 -7 21 -16z m1144 -31 c2 -15 -15 -40 -55 -83 -49 -52 -63 -61 -81
-56 -36 12 -26 43 35 107 60 63 95 74 101 32z m-938 -26 c0 -27 -13 -47 -71
-110 -70 -77 -96 -90 -119 -63 -16 20 -9 30 82 125 86 90 108 99 108 48z m686
9 c7 -30 3 -38 -68 -116 -49 -54 -61 -62 -83 -56 -14 4 -25 14 -25 23 0 19 71
114 112 148 37 31 56 32 64 1z m-461 -17 c7 -22 -11 -49 -93 -139 -43 -47 -53
-53 -69 -44 -10 6 -19 18 -21 26 -3 14 101 149 135 175 19 15 40 7 48 -18z
m215 6 c20 -24 4 -56 -63 -129 -57 -63 -64 -68 -85 -57 -28 15 -28 42 -1 67
12 10 41 45 66 77 46 59 62 67 83 42z"/>
<path d="M5547 7409 c-29 -17 -49 -66 -37 -89 13 -25 15 -25 57 1 75 47 56
132 -20 88z"/>
<path d="M5698 7287 c-41 -34 -53 -49 -53 -72 0 -50 27 -54 82 -9 26 21 59 49
72 62 22 22 22 24 5 43 -26 28 -48 24 -106 -24z"/>
<path d="M5848 7176 c-52 -50 -66 -80 -48 -101 20 -24 35 -18 85 30 39 38 46
51 43 78 -4 46 -26 44 -80 -7z"/>
<path d="M5972 7056 c-37 -34 -81 -110 -70 -122 11 -11 95 38 134 77 31 32 37
43 28 57 -19 30 -50 26 -92 -12z"/>
<path d="M6064 6915 c-52 -31 -78 -69 -70 -101 4 -13 11 -24 17 -24 24 0 149
105 149 126 0 12 -22 24 -43 24 -7 0 -31 -11 -53 -25z"/>
<path d="M6107 6750 c-39 -24 -47 -35 -47 -59 0 -16 4 -33 10 -36 5 -3 42 14
82 38 40 24 82 47 93 51 20 7 20 8 1 22 -32 23 -87 17 -139 -16z"/>
<path d="M6172 6600 c-58 -27 -63 -32 -60 -57 4 -40 28 -40 111 0 100 49 104
52 88 71 -20 24 -68 19 -139 -14z"/>
<path d="M6235 6437 c-62 -23 -77 -44 -56 -77 8 -12 19 -12 72 -1 35 7 75 19
90 27 28 14 45 46 34 64 -10 16 -76 10 -140 -13z"/>
<path d="M6230 6248 c-58 -31 -23 -103 44 -91 88 15 106 23 106 47 0 13 -7 29
-15 36 -23 19 -105 23 -135 8z"/>
<path d="M6170 6028 c0 -45 25 -60 117 -73 50 -7 53 -6 63 19 20 54 -12 76
-116 76 -60 0 -64 -1 -64 -22z"/>
<path d="M6164 5847 c-12 -33 2 -52 56 -74 30 -12 58 -19 62 -17 15 10 8 61
-11 78 -28 25 -99 33 -107 13z"/>
<path d="M6096 5684 c-12 -32 106 -113 124 -84 12 20 0 48 -32 75 -33 28 -83
33 -92 9z"/>
<path d="M2913 5538 c-32 -42 -14 -98 32 -98 39 0 62 69 33 98 -16 16 -53 15
-65 0z"/>
<path d="M6010 5519 c-10 -18 -9 -25 11 -44 29 -28 99 -43 99 -22 0 8 -10 29
-23 48 -28 42 -70 51 -87 18z"/>
<path d="M2890 5315 c-23 -24 -23 -25 -5 -45 27 -30 63 -26 71 7 14 54 -28 79
-66 38z"/>
<path d="M2881 5132 c-16 -30 -14 -59 5 -66 29 -11 62 -6 68 10 14 37 2 60
-36 69 -20 5 -29 2 -37 -13z"/>
<path d="M4932 4478 c-7 -7 -12 -26 -12 -43 0 -38 16 -55 51 -55 29 0 43 12
53 47 13 43 -60 83 -92 51z"/>
<path d="M5206 4408 c-20 -29 -20 -62 0 -82 24 -25 44 -19 59 18 28 65 -22
118 -59 64z"/>
<path d="M5040 4240 c-15 -29 -4 -59 26 -66 34 -9 56 12 52 50 -3 27 -7 31
-35 34 -24 2 -34 -2 -43 -18z"/>
<path d="M2440 9698 c-90 -16 -145 -91 -143 -191 4 -119 69 -189 177 -190 124
-1 209 98 185 216 -24 117 -113 184 -219 165z m73 -138 c50 -39 44 -86 -13
-110 -29 -12 -33 -11 -60 15 -36 35 -38 58 -5 90 29 30 45 31 78 5z"/>
<path d="M862 9647 c-12 -13 -22 -31 -22 -39 0 -27 45 -71 104 -103 l57 -30
19 25 c33 44 34 70 4 101 -29 30 -100 69 -125 69 -9 0 -25 -10 -37 -23z"/>
<path d="M8047 9502 c-39 -27 -56 -53 -57 -88 0 -72 71 -85 131 -25 47 47 51
80 13 110 -33 26 -51 26 -87 3z"/>
<path d="M1165 9460 c-33 -63 -38 -57 190 -212 202 -137 367 -251 473 -330
118 -87 133 -93 166 -67 37 29 34 67 -6 105 -18 17 -78 62 -133 99 -55 38
-125 87 -155 110 -69 53 -379 261 -442 298 -59 34 -74 34 -93 -3z"/>
<path d="M8405 9394 c-42 -21 -81 -61 -96 -95 -13 -34 -13 -34 22 -42 35 -9
110 30 127 66 15 31 7 87 -11 87 -7 0 -25 -7 -42 -16z"/>
<path d="M1835 9375 c-44 -43 -27 -108 35 -140 42 -22 66 -19 89 11 26 33 26
61 2 98 -38 58 -88 70 -126 31z"/>
<path d="M486 9289 c-31 -25 -36 -78 -8 -101 9 -8 67 -38 127 -67 140 -66 272
-139 650 -361 246 -144 402 -230 417 -230 23 0 58 35 58 58 0 28 -26 58 -72
85 -24 13 -117 69 -208 124 -138 84 -268 158 -570 326 -369 205 -353 198 -394
166z"/>
<path d="M7530 9280 c-59 -59 27 -152 93 -100 34 27 36 68 4 98 -29 27 -71 28
-97 2z"/>
<path d="M8084 9033 c-19 -18 -24 -28 -16 -31 14 -4 62 35 62 50 0 15 -17 8
-46 -19z"/>
<path d="M8578 9046 c-58 -16 -89 -36 -123 -80 -51 -67 -69 -183 -43 -284 17
-67 95 -145 167 -166 72 -21 120 -20 181 3 69 26 114 63 147 119 24 41 28 57
27 122 -2 94 -34 169 -98 228 -70 64 -160 84 -258 58z m167 -160 c57 -58 55
-159 -6 -210 -61 -52 -109 -42 -166 32 -36 48 -40 75 -19 127 30 71 141 101
191 51z"/>
<path d="M7782 9017 c-40 -42 -20 -107 33 -107 23 0 75 50 75 74 0 6 -7 22
-16 34 -20 29 -64 29 -92 -1z"/>
<path d="M2331 8994 c-12 -15 -21 -33 -21 -40 0 -16 39 -54 56 -54 30 0 65 22
74 46 25 65 -65 104 -109 48z"/>
<path d="M9543 8838 c-77 -62 -182 -147 -234 -189 -52 -41 -159 -124 -239
-184 -80 -60 -172 -132 -205 -160 -33 -27 -93 -72 -133 -99 -73 -49 -112 -88
-112 -111 0 -7 8 -23 18 -35 26 -32 77 -21 145 33 269 209 498 386 591 457
199 152 355 280 366 300 17 31 12 68 -12 84 -12 9 -27 16 -34 16 -6 0 -74 -51
-151 -112z"/>
<path d="M551 8675 c-43 -55 -18 -89 99 -136 41 -17 234 -109 429 -205 194
-96 359 -174 366 -174 20 0 48 38 48 66 0 14 -9 34 -19 44 -40 39 -804 413
-870 426 -26 5 -35 1 -53 -21z"/>
<path d="M9570 8445 c-127 -90 -170 -127 -170 -147 0 -9 9 -27 21 -42 34 -44
62 -35 191 60 133 98 154 128 121 172 -11 15 -29 28 -39 29 -10 2 -66 -31
-124 -72z"/>
<path d="M9209 8202 c-15 -9 -71 -53 -126 -97 -54 -44 -127 -101 -161 -127
-50 -39 -62 -53 -62 -76 0 -32 27 -62 56 -62 25 0 67 27 194 125 200 153 218
178 165 230 -29 30 -32 30 -66 7z"/>
<path d="M686 8108 c-39 -35 -42 -69 -11 -106 52 -62 135 -33 135 47 0 70 -73
105 -124 59z"/>
<path d="M9380 7993 c-14 -10 -47 -35 -75 -58 -27 -22 -105 -77 -172 -123 -68
-45 -127 -92 -133 -103 -17 -30 8 -73 44 -77 23 -3 55 14 145 75 293 198 317
222 275 281 -18 26 -50 28 -84 5z"/>
<path d="M970 7980 c-57 -57 -13 -150 71 -150 32 0 69 44 69 84 0 67 -94 112
-140 66z"/>
<path d="M9265 7599 c-22 -17 -70 -48 -107 -70 -76 -44 -94 -68 -78 -99 12
-23 41 -40 67 -40 29 0 224 120 235 146 8 18 6 30 -9 56 -26 44 -57 46 -108 7z"/>
<path d="M600 7544 c-78 -34 -121 -98 -121 -179 0 -83 18 -135 65 -181 74 -74
163 -81 258 -19 126 83 105 312 -36 376 -49 22 -118 24 -166 3z m131 -143 c37
-37 38 -74 3 -106 -37 -35 -76 -32 -108 6 -14 17 -26 35 -26 40 0 22 33 71 53
79 36 14 47 12 78 -19z"/>
<path d="M9176 7239 c-31 -37 -33 -58 -5 -93 26 -34 68 -34 99 -2 31 34 29 74
-4 103 -36 31 -59 29 -90 -8z"/>
<path d="M9282 6997 c-45 -47 -11 -127 53 -127 24 0 39 7 54 26 28 35 26 69
-4 99 -31 32 -74 33 -103 2z"/>
<path d="M571 5963 c-29 -55 -7 -113 44 -113 27 0 55 34 55 67 0 50 -77 85
-99 46z"/>
<path d="M9432 5960 c-16 -26 -15 -35 4 -54 18 -19 75 -21 92 -4 7 7 12 21 12
33 0 31 -19 45 -60 45 -24 0 -39 -6 -48 -20z"/>
<path d="M9502 5780 c-30 -28 -28 -64 4 -89 35 -27 69 -27 88 1 49 70 -30 145
-92 88z"/>
<path d="M9501 4834 c-25 -32 -26 -46 -6 -84 31 -60 88 -60 117 1 18 36 15 53
-15 87 -28 31 -70 29 -96 -4z"/>
<path d="M553 4764 c-22 -22 -25 -32 -20 -72 9 -78 73 -105 120 -50 22 26 22
54 -1 97 -24 49 -65 59 -99 25z"/>
<path d="M9513 4580 c-48 -20 -56 -74 -15 -113 33 -31 44 -33 77 -11 36 24 35
85 -1 113 -30 23 -30 23 -61 11z"/>
<path d="M9345 3727 c-53 -14 -136 -98 -153 -153 -31 -105 -5 -222 63 -288 80
-78 200 -96 298 -46 58 30 75 47 105 105 50 96 28 231 -50 312 -60 62 -177 93
-263 70z m143 -153 c68 -47 68 -165 1 -200 -77 -39 -169 16 -169 101 0 85 102
145 168 99z"/>
<path d="M627 3470 c-54 -43 -52 -125 6 -161 20 -12 41 -17 57 -14 30 7 67 46
76 80 9 36 -22 92 -58 104 -42 15 -52 14 -81 -9z"/>
<path d="M851 3074 c-40 -33 -42 -74 -6 -103 22 -16 31 -18 56 -9 54 19 74 72
43 116 -20 29 -55 28 -93 -4z"/>
<path d="M965 2833 c-197 -138 -424 -290 -528 -352 -128 -77 -151 -105 -127
-148 19 -34 56 -40 102 -17 18 9 139 87 268 172 388 257 440 298 440 343 0 24
-35 59 -57 59 -10 -1 -54 -26 -98 -57z"/>
<path d="M9171 2804 c-52 -43 -38 -116 28 -143 24 -11 34 -10 60 4 57 29 64
105 14 145 -35 27 -65 25 -102 -6z"/>
<path d="M1025 2548 c-22 -17 -62 -53 -90 -79 -27 -26 -66 -54 -85 -62 -51
-21 -119 -74 -132 -102 -14 -32 2 -72 34 -84 37 -13 73 6 136 73 35 37 84 76
120 96 63 33 132 98 132 124 0 21 -40 66 -58 66 -10 0 -35 -14 -57 -32z"/>
<path d="M8865 2515 c-44 -43 -25 -121 34 -140 28 -9 89 20 102 49 38 82 -72
156 -136 91z"/>
<path d="M1275 2398 c-44 -44 -159 -151 -255 -237 -96 -85 -209 -187 -250
-226 -41 -38 -144 -130 -228 -203 -139 -123 -152 -137 -152 -167 0 -44 30 -67
68 -54 32 11 344 287 825 728 167 154 175 166 136 215 -34 43 -57 34 -144 -56z"/>
<path d="M8605 2446 c-12 -18 -14 -30 -6 -44 20 -38 35 -43 65 -18 28 22 28
23 12 54 -20 39 -49 42 -71 8z"/>
<path d="M9216 2319 c-46 -36 -51 -124 -11 -170 42 -46 129 -28 161 32 50 97
-66 204 -150 138z"/>
<path d="M8440 2211 c-23 -44 -2 -74 78 -111 25 -12 69 -39 99 -61 30 -22 81
-53 113 -68 33 -16 84 -47 113 -69 28 -22 84 -57 122 -78 39 -21 116 -67 172
-103 148 -96 282 -177 326 -197 43 -20 58 -15 91 29 16 22 17 31 8 51 -12 27
-50 51 -267 170 -82 45 -186 103 -230 128 -44 25 -115 66 -157 89 -98 56 -307
182 -354 214 -45 31 -99 33 -114 6z"/>
<path d="M480 2143 c-78 -52 -97 -94 -64 -141 19 -28 56 -28 100 -1 67 41 82
92 39 134 -28 29 -42 31 -75 8z"/>
<path d="M1309 2071 c-49 -48 -54 -100 -14 -127 34 -22 65 -12 110 37 41 46
42 79 3 112 -31 26 -57 21 -99 -22z"/>
<path d="M1671 2089 c-14 -5 -59 -47 -100 -92 -94 -102 -277 -282 -396 -389
-49 -45 -219 -209 -377 -365 -304 -299 -315 -313 -266 -347 47 -33 59 -24 280
197 117 118 285 280 373 362 88 82 249 234 358 339 l198 191 -3 44 c-4 52 -29
75 -67 60z"/>
<path d="M8286 2027 c-26 -19 -23 -65 5 -92 13 -12 206 -138 429 -281 418
-266 719 -465 843 -558 40 -30 86 -61 104 -70 31 -15 33 -15 59 7 34 29 35 71
3 102 -13 12 -121 87 -239 165 -118 78 -227 151 -243 161 -96 68 -837 533
-894 563 -39 19 -44 20 -67 3z"/>
<path d="M1067 1842 c-42 -44 -33 -89 24 -112 31 -13 33 -12 65 23 39 42 43
68 14 97 -29 29 -71 25 -103 -8z"/>
<path d="M8030 1761 c-5 -11 -10 -31 -10 -45 0 -26 18 -40 655 -524 231 -176
419 -328 543 -439 107 -96 139 -105 170 -47 19 36 2 61 -107 156 -149 131
-457 376 -621 493 -30 22 -116 87 -191 145 -133 103 -261 197 -342 253 -47 32
-82 35 -97 8z"/>
<path d="M1976 1719 c-27 -21 -122 -144 -145 -188 -10 -18 -9 -27 5 -48 l16
-26 33 39 c18 21 37 35 41 31 5 -5 10 -42 12 -83 4 -78 11 -86 50 -58 18 12
22 25 22 64 0 47 1 49 33 55 56 13 85 33 92 66 11 50 -3 96 -41 134 -41 41
-78 45 -118 14z m80 -94 c9 -38 -2 -55 -36 -55 -38 0 -48 21 -26 55 22 33 54
33 62 0z"/>
<path d="M7735 1610 c-28 -31 -12 -63 57 -113 35 -25 131 -102 213 -171 83
-69 236 -195 340 -280 105 -84 236 -194 293 -245 57 -50 109 -92 115 -92 39
-4 77 22 77 52 0 29 -53 82 -214 214 -83 68 -187 154 -231 191 -44 36 -123
101 -175 142 -52 42 -151 124 -220 182 -69 58 -136 113 -150 123 -33 23 -83
22 -105 -3z"/>
<path d="M2192 1553 c-10 -10 -39 -46 -63 -81 -36 -53 -44 -73 -47 -123 -5
-68 8 -91 66 -116 30 -12 37 -12 80 7 61 27 77 43 118 117 41 72 42 108 4 108
-19 0 -35 -16 -75 -73 -51 -74 -83 -95 -110 -72 -24 20 -17 51 25 114 43 63
56 97 46 121 -7 20 -19 19 -44 -2z"/>
<path d="M694 1502 c-48 -39 -55 -82 -19 -117 33 -34 67 -32 99 6 39 46 32 89
-21 117 -28 15 -34 15 -59 -6z"/>
<path d="M2455 1363 c-30 -8 -55 -34 -55 -58 0 -13 11 -53 26 -90 21 -58 23
-70 11 -82 -11 -11 -18 -10 -43 12 -35 30 -60 32 -74 4 -13 -24 6 -61 41 -80
50 -26 139 -1 161 46 8 19 5 34 -16 80 -39 85 -34 132 9 85 39 -43 91 -4 64
47 -20 37 -65 50 -124 36z"/>
<path d="M1573 1291 c-17 -11 -34 -29 -38 -41 -10 -33 4 -78 33 -100 83 -66
172 61 92 133 -36 32 -45 33 -87 8z"/>
<path d="M2625 1240 c-19 -21 -14 -35 29 -71 19 -16 19 -17 -9 -65 -56 -97
-74 -135 -68 -150 16 -43 87 18 130 113 14 29 26 53 28 53 2 0 15 -5 29 -11
33 -15 58 4 54 40 -2 19 -20 37 -66 69 -71 47 -100 52 -127 22z"/>
<path d="M7599 1137 c-52 -35 -79 -82 -79 -139 0 -93 42 -149 121 -162 66 -11
128 25 153 87 18 42 19 54 8 104 -23 112 -121 165 -203 110z m99 -139 c4 -33
-30 -57 -54 -37 -30 24 -8 72 31 67 13 -2 21 -12 23 -30z"/>
<path d="M2886 1117 c-19 -14 -95 -227 -96 -268 0 -15 6 -32 14 -38 10 -9 19
-3 40 29 40 60 44 57 64 -45 6 -29 13 -41 28 -43 36 -5 48 21 35 75 l-12 47
40 38 c36 32 41 43 41 80 0 55 -30 105 -75 124 -42 17 -56 18 -79 1z m69 -83
c9 -9 15 -28 13 -43 -3 -23 -8 -26 -38 -26 -28 0 -36 4 -38 22 -4 28 14 63 33
63 7 0 21 -7 30 -16z"/>
<path d="M6825 1040 c-54 -27 -86 -79 -92 -149 -4 -48 -1 -61 20 -88 38 -51
75 -75 124 -81 56 -6 104 17 133 63 25 41 25 81 0 123 -18 29 -25 33 -46 28
-36 -9 -74 -36 -74 -51 0 -15 23 -41 42 -47 22 -8 -11 -38 -41 -38 -39 0 -69
26 -77 65 -8 47 13 78 71 104 36 16 45 25 45 45 0 25 -24 46 -52 46 -7 0 -31
-9 -53 -20z"/>
<path d="M3116 998 c-7 -18 -24 -66 -37 -105 -21 -66 -22 -77 -11 -120 18 -68
36 -90 76 -97 74 -14 129 40 170 167 21 68 25 91 16 107 -22 42 -42 19 -91
-107 -34 -87 -57 -109 -86 -80 -21 21 -18 82 7 163 11 37 18 75 14 86 -9 30
-43 22 -58 -14z"/>
<path d="M6493 904 c-49 -24 -73 -70 -73 -140 0 -69 22 -113 72 -144 53 -33
76 -35 124 -11 64 30 86 71 82 148 -5 75 -25 108 -88 141 -52 26 -74 27 -117
6z m112 -99 c49 -48 23 -125 -41 -125 -27 0 -74 53 -74 83 0 29 38 67 67 67
13 0 35 -11 48 -25z"/>
<path d="M3411 891 c-11 -11 -25 -39 -31 -63 -6 -24 -18 -66 -26 -95 -20 -74
-19 -119 5 -126 22 -5 43 30 56 90 10 49 22 48 41 -4 34 -94 55 -133 74 -133
30 0 78 110 92 209 12 78 11 84 -7 97 -28 21 -44 0 -64 -86 l-17 -72 -34 88
c-47 123 -53 131 -89 95z"/>
<path d="M3718 813 c-9 -10 -19 -34 -23 -53 -4 -19 -15 -72 -26 -117 -14 -58
-16 -88 -10 -106 22 -58 52 -37 72 51 7 29 16 55 19 57 4 3 22 -29 40 -70 18
-40 40 -81 49 -90 16 -14 19 -13 36 5 23 25 53 136 62 222 5 57 3 69 -11 74
-28 11 -44 -14 -57 -87 l-13 -71 -33 74 c-52 113 -58 123 -74 126 -8 1 -22 -5
-31 -15z"/>
<path d="M6193 823 c-24 -9 -14 -86 29 -223 22 -70 42 -100 66 -100 34 0 124
35 133 52 12 23 4 54 -17 62 -8 3 -31 -1 -51 -9 -20 -9 -40 -12 -44 -8 -4 5
-19 53 -33 107 -32 122 -42 136 -83 119z"/>
<path d="M5966 738 c-8 -13 -21 -59 -29 -103 -32 -165 -28 -205 18 -205 19 0
25 5 25 23 0 30 11 44 43 56 50 19 73 14 87 -19 16 -38 25 -44 50 -30 35 19
25 64 -34 153 -62 95 -109 147 -130 147 -9 0 -22 -10 -30 -22z m74 -117 c16
-31 12 -41 -15 -41 -21 0 -25 5 -25 30 0 35 23 41 40 11z"/>
<path d="M4041 738 c-32 -17 -40 -49 -48 -179 l-6 -105 27 -22 c15 -11 48 -24
73 -28 38 -5 48 -3 66 14 27 27 10 50 -41 54 -33 3 -37 6 -40 35 -3 31 -2 32
40 35 38 3 43 6 43 27 0 20 -7 26 -40 35 -44 13 -58 43 -30 66 14 11 25 11 62
1 51 -13 69 -5 59 26 -12 39 -120 65 -165 41z"/>
<path d="M4556 724 c-11 -29 -6 -95 9 -124 19 -36 19 -36 45 -8 39 42 18 148
-29 148 -11 0 -22 -7 -25 -16z"/>
<path d="M5798 735 c-3 -3 -38 -9 -79 -13 -67 -6 -75 -10 -89 -35 -14 -26 -14
-29 4 -43 11 -8 30 -14 42 -14 30 0 32 -5 50 -97 17 -92 31 -130 50 -137 30
-11 44 62 25 134 -5 19 -12 52 -15 72 -6 36 -5 38 26 46 36 9 47 36 28 71 -10
20 -30 27 -42 16z"/>
<path d="M4325 700 c-36 -13 -46 -36 -61 -137 -19 -125 -16 -171 13 -190 20
-14 22 -12 38 36 9 28 20 51 24 51 12 0 47 -42 65 -77 19 -38 35 -41 62 -12
15 16 16 23 6 37 -34 48 -35 58 -8 98 14 21 26 52 26 67 0 38 -28 95 -54 112
-27 17 -86 25 -111 15z m83 -93 c35 -27 -2 -82 -51 -75 -19 3 -22 9 -21 42 2
53 29 66 72 33z"/>
<path d="M5456 663 c-33 -66 -75 -215 -76 -271 0 -25 5 -35 23 -41 25 -10 47
9 47 40 0 23 14 31 68 39 42 7 43 6 63 -32 22 -42 43 -49 59 -18 14 26 9 41
-50 166 -42 90 -84 144 -111 144 -5 0 -15 -12 -23 -27z m69 -127 c7 -20 6 -29
-4 -36 -31 -19 -51 12 -35 55 9 22 27 13 39 -19z"/>
<path d="M5117 659 c-36 -14 -41 -39 -32 -172 9 -147 17 -161 93 -155 52 5 59
9 98 52 23 25 45 60 49 76 14 64 -18 152 -68 184 -31 21 -105 28 -140 15z
m113 -99 c31 -31 28 -102 -6 -129 -51 -40 -59 -30 -67 87 l-5 62 29 0 c16 0
38 -9 49 -20z"/>
<path d="M4718 631 c-27 -24 -33 -36 -33 -71 0 -39 5 -47 53 -90 50 -45 52
-49 36 -65 -11 -11 -24 -14 -38 -10 -60 19 -66 18 -66 -7 0 -39 34 -63 92 -63
42 0 53 4 74 28 44 52 28 114 -41 157 -40 25 -50 70 -16 70 11 0 23 -4 26 -10
11 -17 54 -11 65 9 13 26 5 44 -29 64 -44 26 -86 22 -123 -12z"/>
</g>
</svg>
